<?xml version="1.0" standalone="no"?>
<!DOCTYPE svg PUBLIC "-//W3C//DTD SVG 20010904//EN"
 "http://www.w3.org/TR/2001/REC-SVG-20010904/DTD/svg10.dtd">
<svg version="1.0" xmlns="http://www.w3.org/2000/svg"
 width="512.000000pt" height="512.000000pt" viewBox="0 0 512.000000 512.000000"
 preserveAspectRatio="xMidYMid meet">
<metadata>
Created by potrace 1.11, written by Peter Selinger 2001-2013
</metadata>
<g transform="translate(0.000000,512.000000) scale(0.100000,-0.100000)"
fill="#000000" stroke="none">
<path d="M263 5006 c-102 -33 -182 -107 -229 -216 -19 -43 -19 -88 -19 -1855
l0 -1810 26 -55 c52 -109 143 -175 264 -194 17 -2 465 -5 997 -5 l967 -1 -2
-203 -2 -202 -405 0 -405 -1 -2 -177 -2 -177 1132 2 1132 3 -1 165 c0 108 3
168 10 172 15 10 26 10 -399 13 -203 1 -375 3 -380 4 -11 1 -15 385 -4 395 3
3 417 6 920 6 537 1 934 5 963 11 109 21 205 92 252 187 l29 57 0 1810 0 1810
-32 66 c-39 79 -102 140 -181 177 l-57 27 -2265 2 c-1851 1 -2273 -1 -2307
-11z m4507 -376 c2 -136 -6 -1272 -15 -2170 -2 -245 -4 -505 -5 -577 l0 -133
-2195 0 -2194 0 -1 1453 0 1452 2205 0 2205 0 0 -25z m-2097 -3146 c45 -23 66
-44 88 -86 25 -49 24 -117 -2 -168 -88 -168 -337 -119 -353 69 -6 75 37 150
108 185 41 20 119 20 159 0z"/>
<path d="M3500 4275 c-36 -7 -86 -15 -113 -18 -26 -3 -51 -8 -55 -10 -4 -3
-28 -8 -54 -11 -25 -4 -95 -15 -155 -26 -59 -10 -121 -21 -138 -24 -16 -3 -97
-16 -180 -31 -82 -14 -163 -28 -180 -31 -16 -2 -66 -11 -110 -19 -44 -7 -96
-16 -115 -19 -19 -3 -60 -10 -90 -16 -108 -21 -126 -24 -167 -24 -24 -1 -43
-4 -43 -8 0 -5 -10 -8 -22 -8 -50 0 -48 25 -50 -679 l-3 -663 -26 21 c-48 37
-130 63 -214 67 -134 5 -237 -30 -325 -112 -139 -130 -142 -314 -7 -447 203
-200 606 -139 733 110 l23 47 1 540 c0 297 4 543 8 547 4 4 30 10 57 13 132
15 314 37 350 42 56 7 113 14 160 20 22 2 56 6 75 9 19 3 60 7 90 10 60 6 137
16 160 20 8 2 47 6 85 10 39 4 81 9 95 11 14 2 49 7 78 10 l52 5 0 -391 0
-392 -32 20 c-171 106 -421 84 -554 -47 -68 -67 -97 -133 -98 -215 -1 -81 2
-96 31 -151 66 -125 226 -207 392 -199 92 4 141 17 227 60 110 55 193 147 208
230 3 16 6 198 7 404 0 269 4 379 12 389 8 10 8 13 1 8 -8 -5 -11 125 -9 478
l2 485 -21 -1 c-11 0 -50 -7 -86 -14z m-79 -315 c1 -69 1 -132 0 -141 -1 -12
-20 -18 -78 -26 -43 -7 -87 -14 -98 -16 -11 -3 -42 -8 -70 -11 -27 -4 -75 -11
-105 -16 -30 -5 -73 -12 -95 -15 -22 -4 -51 -8 -65 -11 -53 -9 -277 -45 -310
-50 -19 -3 -46 -7 -60 -10 -14 -2 -43 -7 -65 -9 -23 -3 -89 -14 -148 -24 -59
-10 -109 -15 -110 -12 -3 5 -1 127 2 223 1 24 6 28 54 36 135 26 225 42 262
48 22 3 85 14 140 24 55 11 120 22 145 25 24 4 47 8 50 10 3 2 21 6 40 9 19 3
44 7 55 10 11 2 40 7 65 11 56 9 78 13 110 20 40 8 62 12 110 19 25 4 72 12
105 19 33 7 61 13 62 12 1 0 3 -57 4 -125z m-55 -1498 c-41 -80 -144 -138
-225 -127 -30 4 -131 34 -131 38 0 1 44 2 97 2 112 0 167 19 231 79 20 20 38
36 40 36 1 0 -4 -13 -12 -28z m-1829 -159 c42 -46 126 -93 168 -93 14 0 24 -4
20 -10 -8 -13 -93 -5 -139 14 -55 23 -101 78 -124 150 -25 77 -18 92 14 29 13
-26 41 -67 61 -90z"/>
</g>
</svg>
